<?xml version="1.0" encoding="utf-8"?>
<!-- Generator: Adobe Illustrator 22.1.0, SVG Export Plug-In . SVG Version: 6.00 Build 0)  -->
<svg version="1.1" id="Layer_1" xmlns="http://www.w3.org/2000/svg" xmlns:xlink="http://www.w3.org/1999/xlink" x="0px" y="0px"
	 viewBox="0 0 2000 2000" style="enable-background:new 0 0 2000 2000;" xml:space="preserve">
<style type="text/css">
	.st0{fill:#333333;}
</style>
<g>
	<g>
		<path class="st0" d="M1846.7,1047.7c16.9,0,30.8-13.5,31.1-30.5c0.1-5.7,0.2-11.5,0.2-17.2c0-5.8-0.1-11.5-0.2-17.2
			c-0.3-16.9-14.2-30.5-31.1-30.5h-562.8c-47.9,0-92.6-14.3-129.9-39l162-162c49.7,39.5,108,68.7,171.6,84.2
			c32.2,7.9,65.9,12.2,100.4,12.6c1.6,0,3.3,0,4.9,0c85.8,0,166-24.4,234.1-66.6c11.9-7.4,17.5-21.9,13.4-35.4
			c-3.5-11.4-7.2-22.8-11.1-34c-6.6-18.9-29.3-26.6-46.1-15.7c-49.4,32.1-107.4,52.1-169.7,55.7c-6.8,0.4-13.7,0.6-20.6,0.6
			c-25.6,0-50.6-2.8-74.6-8c-49.5-10.8-95.1-32-134.4-61.3l97.1-97.1c2.9,4.2,5.5,8.6,8.1,13.1c31,16.4,66.4,25.8,103.8,25.8
			c3.3,0,6.5-0.1,9.7-0.2c50.9-2.2,97.4-21.5,133.9-52.4c11.7-9.9,14.3-27.1,6.1-40.1c-6.3-9.9-12.8-19.8-19.5-29.4
			c-10.5-15.3-32.1-17.5-46-5.2c-22.5,19.9-52,32-84.3,32c-13.8,0-27-2.2-39.4-6.3c-2.4-0.8-4.8-1.6-7.1-2.6l85.5-85.5
			c12-12,12.1-31.4,0.4-43.6c-7.9-8.2-16-16.3-24.2-24.2c-12.2-11.8-31.6-11.6-43.6,0.4l-82.5,82.5l-4.8,4.8
			c-1.7-3.8-3.3-7.7-4.6-11.6c-4.4-12.9-6.8-26.8-6.8-41.2c0-32.1,11.9-61.4,31.6-83.8c12.1-13.8,9.7-35.1-5.5-45.4
			c-9.8-6.7-19.8-13.2-30-19.5c-13-8.1-30.2-5.4-40,6.4c-30.9,37.1-49.9,84.3-51.4,135.8c-0.1,2.1-0.1,4.3-0.1,6.4
			c0,38.7,9.9,75,27.3,106.7c5.5,3,10.8,6.2,16,9.6l-6.3,6.3l-91.4,91.4c-30.3-39.1-52.5-84.7-64.1-134.4c-6-25.6-9.1-52.2-9.1-79.6
			c0-5.2,0.1-10.3,0.4-15.4c2.7-63.3,22.4-122.3,54.5-172.6c10.8-16.9,2.9-39.5-16.1-46c-11.3-3.8-22.7-7.4-34.2-10.8
			c-13.5-4-28,1.7-35.3,13.7c-41.1,67.4-64.8,146.6-64.8,231.2c0,3.8,0,7.6,0.1,11.4c0.9,34.5,5.7,68.1,14,100.3
			c16.4,63.3,46.4,121.1,86.6,170.2l-161.5,161.5c-24.6-37.3-38.9-81.9-38.9-129.8V153.3c0-16.9-13.5-30.8-30.5-31.1
			c-5.7-0.1-11.5-0.2-17.2-0.2s-11.5,0.1-17.2,0.2c-16.9,0.3-30.5,14.2-30.5,31.1v562.8c0,47.9-14.3,92.6-39,129.8L751,683.6
			c40.1-49.2,69.9-107,86.2-170.3c8.3-32.1,13-65.7,13.8-100.1c0.1-3.6,0.1-7.2,0.1-10.9c0-84.4-23.6-163.5-64.6-230.8
			c-7.3-12-21.8-17.6-35.3-13.7c-11.5,3.4-22.8,7-34.1,10.9c-18.9,6.5-26.8,29.1-16,45.9c32,50.2,51.5,109,54.3,172.1
			c0.2,5.2,0.4,10.4,0.4,15.6c0,27.3-3.2,53.9-9.1,79.5c-11.5,49.5-33.5,94.9-63.6,133.9l-91.4-91.4l-5.5-5.5
			c4.5-3.1,9.2-5.9,14-8.6c17.8-32,27.9-68.8,27.9-107.9c0-2,0-4-0.1-6.1c-1.4-51.4-20.3-98.5-50.9-135.6
			c-9.8-11.9-27-14.6-40.1-6.5c-10.1,6.3-20.1,12.8-29.9,19.5c-15.1,10.3-17.5,31.4-5.5,45.2c19.4,22.3,31.2,51.5,31.2,83.3
			c0,14.9-2.6,29.1-7.3,42.4c-1.1,3.2-2.4,6.4-3.8,9.5l-86.4-86.4c-12-12-31.4-12.1-43.6-0.4c-8.2,7.9-16.3,16-24.2,24.2
			c-11.8,12.2-11.7,31.6,0.3,43.6l85.1,85.1c-2,0.8-4.1,1.6-6.2,2.3c-12.9,4.5-26.8,6.9-41.2,6.9c-32,0-61.3-11.9-83.7-31.4
			c-13.9-12.1-35.2-9.8-45.6,5.4c-6.7,9.7-13.2,19.6-19.5,29.6c-8.2,13-5.6,30.3,6.2,40.2c36.6,30.6,83.3,49.7,134.2,51.6
			c2.8,0.1,5.6,0.2,8.4,0.2c38.3,0,74.3-9.7,105.8-26.8c2.4-4.1,4.8-8.1,7.4-12l4.8,4.8l91.7,91.7c-39.1,29.3-84.5,50.7-133.8,61.6
			c-24.4,5.5-49.9,8.3-76,8.3c-6.4,0-12.8-0.2-19.2-0.5c-62.4-3.4-120.5-23.2-170.1-55.1c-16.8-10.8-39.5-3.1-46,15.8
			c-3.9,11.2-7.6,22.6-11.1,34.1c-4.1,13.5,1.5,28,13.5,35.4c67.8,41.7,147.6,65.8,232.8,65.8c2.1,0,4.2,0,6.3,0
			c34.5-0.5,68.1-4.9,100.3-12.9c63.5-15.6,121.6-44.9,171.2-84.5l162.6,162.6c-37.3,24.6-81.9,39-129.8,39H153.3
			c-16.9,0-30.8,13.5-31.1,30.5c-0.1,5.7-0.2,11.5-0.2,17.2c0,5.8,0.1,11.5,0.2,17.2c0.3,16.9,14.2,30.5,31.1,30.5h562.8
			c47.9,0,92.5,14.3,129.8,38.9l-160.1,160.1c-49.4-40.1-107.7-69.8-171.3-85.9c-32.3-8.2-66-12.8-100.7-13.4
			c-2.7,0-5.5-0.1-8.3-0.1c-85.8,0-166,24.4-234.1,66.5c-11.9,7.4-17.4,21.8-13.5,35.2c3.4,11.5,7,22.9,10.9,34.2
			c6.5,19,29.3,26.8,46.2,15.8c50-32.5,108.7-52.6,171.8-55.9c6.2-0.3,12.4-0.5,18.7-0.5c26.3,0,51.9,2.9,76.5,8.5
			c50.1,11.2,96.3,33.2,135.8,63.4l-99.1,99.1c-3.9-6-7.6-12.1-11-18.4c-30.6-15.9-65.4-24.9-102.2-24.9c-3.2,0-6.4,0.1-9.6,0.2
			c-51.4,2.2-98.4,21.9-135,53.3c-11.6,9.9-14.1,26.9-6,39.9c6.3,10,12.7,19.9,19.4,29.7c10.5,15.4,32.2,17.6,46.1,5.1
			c22.6-20.4,52.5-32.8,85.2-32.8c12.9,0,25.3,1.9,37,5.5c4.7,1.4,9.2,3.1,13.6,5l-5.9,5.9l-82.5,82.5c-12,12-12.1,31.4-0.4,43.6
			c7.9,8.2,16,16.3,24.2,24.2c12.2,11.8,31.6,11.7,43.6-0.3l82.5-82.5l5.3-5.3c1.7,4,3.2,8.1,4.4,12.3c3.5,11.5,5.3,23.8,5.3,36.5
			c0,32.8-12.5,62.8-32.9,85.4c-12.6,13.9-10.4,35.7,5,46.3c9.7,6.7,19.6,13.1,29.6,19.4c12.9,8.1,29.9,5.6,39.9-6
			c31.4-36.5,51.2-83.2,53.6-134.4c0.2-3.5,0.3-7.1,0.3-10.6c0-36.4-8.8-70.9-24.4-101.3c-6.1-3.3-11.9-6.8-17.6-10.6l7.3-7.3
			l91.6-91.6c29.9,39.6,51.7,85.8,62.6,135.9c5.3,24.2,8.1,49.3,8.1,75c0,6.8-0.2,13.5-0.6,20.2c-3.6,62.8-23.8,121.2-56.2,170.9
			c-11,16.8-3.3,39.7,15.7,46.2c11.3,3.9,22.6,7.5,34.1,11c13.4,4,27.9-1.5,35.3-13.4c42.5-68.3,67.1-148.8,67.1-234.9
			c0-2.1,0-4.2,0-6.3c-0.5-34.6-4.9-68.4-13-100.7c-15.8-63.8-45.3-122.1-85.2-171.8l160.3-160.2c24.7,37.3,39,81.9,39,129.9v562.8
			c0,16.9,13.5,30.8,30.5,31.1c5.7,0.1,11.5,0.2,17.2,0.2s11.5-0.1,17.2-0.2c16.9-0.3,30.5-14.2,30.5-31.1v-562.8
			c0-47.9,14.3-92.5,39-129.8l159.5,159.5c-40,49.6-69.7,108-85.6,171.8c-8.1,32.4-12.6,66.1-13.1,100.8c0,2.3-0.1,4.6-0.1,6.9
			c0,86.3,24.7,167,67.3,235.3c7.4,11.8,21.8,17.3,35.2,13.4c11.5-3.4,22.9-7.1,34.2-10.9c19.1-6.5,26.8-29.4,15.8-46.3
			c-32.6-49.8-52.9-108.4-56.5-171.4c-0.4-6.6-0.6-13.3-0.6-20.1c0-25.8,2.8-51,8.2-75.2c11-50.3,32.9-96.6,63.1-136.3l99.7,99.7
			c-6.3,4.1-12.8,8-19.4,11.5c-15.3,30.2-23.9,64.2-23.9,100.3c0,3.7,0.1,7.3,0.3,11c2.5,51.4,22.5,98.2,54.2,134.7
			c10,11.5,26.9,14,39.8,5.9c10-6.3,19.9-12.7,29.6-19.4c15.5-10.6,17.7-32.5,5-46.4c-20.7-22.6-33.4-52.8-33.4-85.8
			c0-12.2,1.7-24.1,5-35.3c1.4-4.9,3.2-9.8,5.1-14.4l6.3,6.3l82.5,82.5c12,12,31.4,12.1,43.6,0.3c8.2-7.9,16.3-16,24.2-24.2
			c11.8-12.2,11.6-31.6-0.4-43.6l-82.5-82.5l-6.3-6.3c4.7-2,9.5-3.8,14.4-5.2c11.2-3.2,23-5,35.3-5c33,0,63.2,12.7,85.8,33.4
			c13.9,12.7,35.8,10.6,46.4-5c6.7-9.7,13.1-19.6,19.4-29.6c8.1-12.9,5.6-29.8-5.9-39.8c-36.5-31.7-83.3-51.7-134.7-54.2
			c-3.6-0.2-7.3-0.3-11-0.3c-36.1,0-70.2,8.6-100.3,23.9c-3.5,6.7-7.4,13.2-11.5,19.4l-8.2-8.2l-91.5-91.5
			c39.7-30.2,86-52.1,136.3-63.1c24.2-5.4,49.4-8.2,75.2-8.2c6.7,0,13.4,0.2,20,0.6c63,3.6,121.6,23.8,171.4,56.5
			c16.8,11,39.7,3.3,46.3-15.8c3.9-11.3,7.5-22.7,10.9-34.2c4-13.4-1.5-27.8-13.4-35.2c-68.3-42.7-149-67.3-235.3-67.3
			c-2.3,0-4.6,0-6.9,0.1c-34.7,0.5-68.5,5-100.8,13.1c-63.8,15.9-122.1,45.5-171.7,85.6l-159.5-159.5c37.3-24.6,81.9-39,129.8-39
			H1846.7z M1085.7,1018.3c-12.1,9-23.6,18.9-34.3,29.4c-1.3,1.2-2.5,2.5-3.7,3.7c-10.6,10.7-20.4,22.2-29.4,34.3
			c-6.5,8.7-12.6,17.7-18.3,27c-5.7-9.3-11.7-18.4-18.3-27.1c-9-12.1-18.8-23.5-29.4-34.2c-1.2-1.2-2.5-2.5-3.7-3.7
			c-10.8-10.6-22.2-20.5-34.3-29.5c-8.7-6.5-17.7-12.6-27-18.2c9.3-5.6,18.4-11.7,27-18.3c12.1-9,23.6-18.8,34.3-29.4l3.7-3.7
			c10.6-10.7,20.4-22.2,29.4-34.3c6.5-8.7,12.6-17.7,18.3-27.1c5.6,9.3,11.7,18.3,18.2,27c9,12.1,18.9,23.6,29.5,34.3l3.7,3.7
			c10.7,10.6,22.2,20.4,34.2,29.4c8.7,6.5,17.8,12.6,27.1,18.3C1103.4,1005.6,1094.4,1011.7,1085.7,1018.3z"/>
	</g>
</g>
</svg>
