<?xml version="1.0" encoding="utf-8"?>
<!-- Generator: Adobe Illustrator 22.1.0, SVG Export Plug-In . SVG Version: 6.00 Build 0)  -->
<svg version="1.1" id="Layer_1" xmlns="http://www.w3.org/2000/svg" xmlns:xlink="http://www.w3.org/1999/xlink" x="0px" y="0px"
	 viewBox="0 0 2000 866" style="enable-background:new 0 0 2000 866;" xml:space="preserve">
<style type="text/css">
	.st0{fill:#333333;}
	.st1{font-family:'Poppins-Bold';}
	.st2{font-size:306.874px;}
	.st3{fill:#055BD6;}
</style>
<g>
	<g>
		<g>
			<path class="st0" d="M699.5,439.8c6.7,0,12.2-5.4,12.4-12.1c0-2.3,0.1-4.6,0.1-6.9c0-2.3,0-4.6-0.1-6.9
				c-0.1-6.7-5.6-12.1-12.4-12.1H475.8c-19,0-36.8-5.7-51.6-15.5l64.4-64.4c19.8,15.7,42.9,27.3,68.2,33.5c12.8,3.1,26.2,4.9,39.9,5
				c0.7,0,1.3,0,2,0c34.1,0,66-9.7,93-26.5c4.7-2.9,6.9-8.7,5.3-14.1c-1.4-4.6-2.8-9.1-4.4-13.5c-2.6-7.5-11.7-10.6-18.3-6.2
				c-19.6,12.8-42.7,20.7-67.5,22.1c-2.7,0.2-5.4,0.2-8.2,0.2c-10.2,0-20.1-1.1-29.7-3.2c-19.7-4.3-37.8-12.7-53.4-24.4l38.6-38.6
				c1.1,1.7,2.2,3.4,3.2,5.2c12.3,6.5,26.4,10.2,41.3,10.2c1.3,0,2.6,0,3.9-0.1c20.2-0.9,38.7-8.6,53.2-20.8
				c4.7-3.9,5.7-10.8,2.4-15.9c-2.5-4-5.1-7.9-7.7-11.7c-4.2-6.1-12.7-7-18.3-2.1c-8.9,7.9-20.7,12.7-33.5,12.7
				c-5.5,0-10.7-0.9-15.7-2.5c-1-0.3-1.9-0.7-2.8-1l34-34c4.8-4.8,4.8-12.5,0.1-17.3c-3.1-3.3-6.4-6.5-9.6-9.6
				c-4.9-4.7-12.6-4.6-17.3,0.1l-32.8,32.8l-1.9,1.9c-0.7-1.5-1.3-3-1.8-4.6c-1.8-5.1-2.7-10.6-2.7-16.4c0-12.7,4.7-24.4,12.6-33.3
				c4.8-5.5,3.9-13.9-2.2-18c-3.9-2.7-7.9-5.2-11.9-7.7c-5.2-3.2-12-2.1-15.9,2.5c-12.3,14.7-19.9,33.5-20.4,54c0,0.8,0,1.7,0,2.6
				c0,15.4,3.9,29.8,10.8,42.4c2.2,1.2,4.3,2.5,6.4,3.8l-2.5,2.5l-36.3,36.3c-12.1-15.5-20.9-33.7-25.5-53.4
				c-2.4-10.2-3.6-20.8-3.6-31.7c0-2.1,0-4.1,0.1-6.1c1.1-25.2,8.9-48.6,21.7-68.6c4.3-6.7,1.2-15.7-6.4-18.3c-4.5-1.5-9-3-13.6-4.3
				c-5.4-1.6-11.1,0.7-14,5.4c-16.3,26.8-25.7,58.3-25.7,91.9c0,1.5,0,3,0.1,4.5c0.4,13.7,2.3,27.1,5.6,39.9
				c6.5,25.1,18.4,48.1,34.4,67.7l-64.2,64.2c-9.8-14.8-15.5-32.5-15.5-51.6V84.3c0-6.7-5.4-12.2-12.1-12.4c-2.3,0-4.6-0.1-6.9-0.1
				c-2.3,0-4.6,0-6.9,0.1c-6.7,0.1-12.1,5.6-12.1,12.4V308c0,19-5.7,36.8-15.5,51.6L264,295.1c16-19.5,27.8-42.5,34.3-67.7
				c3.3-12.8,5.2-26.1,5.5-39.8c0-1.4,0.1-2.9,0.1-4.3c0-33.6-9.4-65-25.7-91.7c-2.9-4.8-8.7-7-14-5.4c-4.6,1.3-9.1,2.8-13.6,4.3
				c-7.5,2.6-10.6,11.6-6.4,18.3c12.7,19.9,20.5,43.3,21.6,68.4c0.1,2.1,0.1,4.1,0.1,6.2c0,10.9-1.3,21.4-3.6,31.6
				c-4.6,19.7-13.3,37.7-25.3,53.2l-36.3-36.3l-2.2-2.2c1.8-1.2,3.7-2.4,5.6-3.4c7.1-12.7,11.1-27.3,11.1-42.9c0-0.8,0-1.6,0-2.4
				c-0.6-20.4-8.1-39.2-20.2-53.9c-3.9-4.7-10.7-5.8-15.9-2.6c-4,2.5-8,5.1-11.9,7.7c-6,4.1-7,12.5-2.2,18
				c7.7,8.9,12.4,20.5,12.4,33.1c0,5.9-1,11.6-2.9,16.9c-0.4,1.3-0.9,2.5-1.5,3.8l-34.3-34.3c-4.8-4.8-12.5-4.8-17.3-0.1
				c-3.3,3.1-6.5,6.3-9.6,9.6c-4.7,4.9-4.6,12.6,0.1,17.3l33.8,33.8c-0.8,0.3-1.6,0.6-2.5,0.9c-5.1,1.8-10.6,2.7-16.4,2.7
				c-12.7,0-24.4-4.7-33.3-12.5c-5.5-4.8-14-3.9-18.1,2.1c-2.7,3.9-5.2,7.8-7.7,11.7c-3.3,5.2-2.2,12,2.5,16
				c14.6,12.2,33.1,19.8,53.3,20.5c1.1,0,2.2,0.1,3.3,0.1c15.2,0,29.5-3.9,42-10.6c0.9-1.6,1.9-3.2,3-4.8l1.9,1.9l36.5,36.5
				c-15.5,11.6-33.6,20.1-53.2,24.5c-9.7,2.2-19.8,3.3-30.2,3.3c-2.6,0-5.1-0.1-7.6-0.2c-24.8-1.3-47.9-9.2-67.6-21.9
				c-6.7-4.3-15.7-1.2-18.3,6.3c-1.6,4.5-3,9-4.4,13.5c-1.6,5.4,0.6,11.1,5.4,14.1c26.9,16.6,58.7,26.1,92.5,26.1c0.8,0,1.7,0,2.5,0
				c13.7-0.2,27.1-1.9,39.9-5.1c25.2-6.2,48.3-17.8,68-33.6l64.6,64.6c-14.8,9.8-32.6,15.5-51.6,15.5H26.4
				c-6.7,0-12.2,5.4-12.4,12.1c0,2.3-0.1,4.6-0.1,6.9c0,2.3,0,4.6,0.1,6.9c0.1,6.7,5.6,12.1,12.4,12.1h223.7
				c19,0,36.8,5.7,51.6,15.5L238,519c-19.7-15.9-42.8-27.8-68.1-34.1c-12.8-3.2-26.2-5.1-40-5.3c-1.1,0-2.2,0-3.3,0
				c-34.1,0-66,9.7-93,26.5c-4.7,2.9-6.9,8.7-5.3,14c1.4,4.6,2.8,9.1,4.3,13.6c2.6,7.6,11.7,10.7,18.4,6.3
				c19.9-12.9,43.2-20.9,68.3-22.2c2.4-0.1,4.9-0.2,7.4-0.2c10.4,0,20.6,1.2,30.4,3.4c19.9,4.4,38.3,13.2,54,25.2l-39.4,39.4
				c-1.6-2.4-3-4.8-4.4-7.3c-12.2-6.3-26-9.9-40.6-9.9c-1.3,0-2.6,0-3.8,0.1c-20.4,0.9-39.1,8.7-53.7,21.2
				c-4.6,3.9-5.6,10.7-2.4,15.8c2.5,4,5.1,7.9,7.7,11.8c4.2,6.1,12.8,7,18.3,2c9-8.1,20.9-13,33.9-13c5.1,0,10,0.8,14.7,2.2
				c1.9,0.6,3.7,1.2,5.4,2l-2.3,2.3l-32.8,32.8c-4.8,4.8-4.8,12.5-0.1,17.3c3.1,3.3,6.3,6.5,9.6,9.6c4.9,4.7,12.6,4.6,17.3-0.1
				l32.8-32.8l2.1-2.1c0.7,1.6,1.3,3.2,1.8,4.9c1.4,4.6,2.1,9.5,2.1,14.5c0,13-5,24.9-13.1,33.9c-5,5.5-4.1,14.2,2,18.4
				c3.9,2.6,7.8,5.2,11.7,7.7c5.1,3.2,11.9,2.2,15.8-2.4c12.5-14.5,20.3-33.1,21.3-53.4c0.1-1.4,0.1-2.8,0.1-4.2
				c0-14.5-3.5-28.2-9.7-40.3c-2.4-1.3-4.7-2.7-7-4.2l2.9-2.9l36.4-36.4c11.9,15.7,20.5,34.1,24.9,54c2.1,9.6,3.2,19.6,3.2,29.8
				c0,2.7-0.1,5.4-0.2,8c-1.4,25-9.4,48.2-22.3,67.9c-4.4,6.7-1.3,15.8,6.3,18.4c4.5,1.5,9,3,13.6,4.4c5.3,1.6,11.1-0.6,14-5.3
				c16.9-27.1,26.7-59.1,26.7-93.4c0-0.8,0-1.7,0-2.5c-0.2-13.8-2-27.2-5.2-40c-6.3-25.3-18-48.5-33.9-68.3l63.7-63.7
				c9.8,14.8,15.5,32.6,15.5,51.6v223.7c0,6.7,5.4,12.2,12.1,12.4c2.3,0,4.6,0.1,6.9,0.1c2.3,0,4.6,0,6.9-0.1
				c6.7-0.1,12.1-5.6,12.1-12.4V533.7c0-19,5.7-36.8,15.5-51.6l63.4,63.4c-15.9,19.7-27.7,42.9-34,68.3c-3.2,12.9-5,26.3-5.2,40.1
				c0,0.9,0,1.8,0,2.7c0,34.3,9.8,66.4,26.8,93.5c2.9,4.7,8.7,6.9,14,5.3c4.6-1.4,9.1-2.8,13.6-4.3c7.6-2.6,10.6-11.7,6.3-18.4
				c-13-19.8-21-43.1-22.4-68.1c-0.2-2.6-0.2-5.3-0.2-8c0-10.3,1.1-20.3,3.2-29.9c4.4-20,13.1-38.4,25.1-54.2l39.6,39.6
				c-2.5,1.6-5.1,3.2-7.7,4.6c-6.1,12-9.5,25.5-9.5,39.9c0,1.5,0,2.9,0.1,4.4c1,20.4,8.9,39,21.5,53.5c4,4.6,10.7,5.5,15.8,2.3
				c4-2.5,7.9-5.1,11.8-7.7c6.2-4.2,7-12.9,2-18.4c-8.2-9-13.3-21-13.3-34.1c0-4.9,0.7-9.6,2-14c0.6-2,1.3-3.9,2-5.7l2.5,2.5
				l32.8,32.8c4.8,4.8,12.5,4.8,17.3,0.1c3.3-3.1,6.5-6.3,9.6-9.6c4.7-4.9,4.6-12.6-0.1-17.3l-32.8-32.8l-2.5-2.5
				c1.9-0.8,3.8-1.5,5.7-2.1c4.4-1.3,9.2-2,14-2c13.1,0,25.1,5,34.1,13.3c5.5,5,14.2,4.2,18.4-2c2.6-3.9,5.2-7.8,7.7-11.8
				c3.2-5.1,2.2-11.8-2.3-15.8c-14.5-12.6-33.1-20.5-53.6-21.5c-1.4-0.1-2.9-0.1-4.4-0.1c-14.3,0-27.9,3.4-39.9,9.5
				c-1.4,2.7-2.9,5.2-4.6,7.7l-3.2-3.2l-36.4-36.4c15.8-12,34.2-20.7,54.2-25.1c9.6-2.1,19.6-3.2,29.9-3.2c2.7,0,5.3,0.1,8,0.2
				c25,1.4,48.3,9.5,68.1,22.4c6.7,4.4,15.8,1.3,18.4-6.3c1.5-4.5,3-9,4.3-13.6c1.6-5.3-0.6-11.1-5.3-14
				c-27.2-17-59.2-26.8-93.5-26.8c-0.9,0-1.8,0-2.7,0c-13.8,0.2-27.2,2-40.1,5.2c-25.3,6.3-48.5,18.1-68.3,34l-63.4-63.4
				c14.8-9.8,32.6-15.5,51.6-15.5H699.5z M397,428.1c-4.8,3.6-9.4,7.5-13.6,11.7c-0.5,0.5-1,1-1.5,1.5c-4.2,4.3-8.1,8.8-11.7,13.6
				c-2.6,3.5-5,7-7.3,10.7c-2.2-3.7-4.7-7.3-7.3-10.8c-3.6-4.8-7.5-9.3-11.7-13.6c-0.5-0.5-1-1-1.5-1.5c-4.3-4.2-8.8-8.1-13.6-11.7
				c-3.5-2.6-7-5-10.7-7.2c3.7-2.2,7.3-4.7,10.7-7.3c4.8-3.6,9.4-7.5,13.6-11.7l1.5-1.5c4.2-4.3,8.1-8.8,11.7-13.6
				c2.6-3.5,5-7,7.3-10.8c2.2,3.7,4.7,7.3,7.2,10.7c3.6,4.8,7.5,9.4,11.7,13.6l1.5,1.5c4.3,4.2,8.8,8.1,13.6,11.7
				c3.5,2.6,7.1,5,10.8,7.3C404.1,423.1,400.5,425.6,397,428.1z"/>
		</g>
	</g>
	<g>
		<g>
			<text transform="matrix(1 0 0 1 760.1377 398.9283)"><tspan x="0" y="0" class="st0 st1 st2">har</tspan><tspan x="0" y="209.2" class="st0 st1 st2">monya</tspan></text>
		</g>
		<circle class="st3" cx="1938.1" cy="573.3" r="47.9"/>
	</g>
</g>
</svg>
